<svg width="58" height="51" viewBox="0 0 58 51" fill="none" xmlns="http://www.w3.org/2000/svg">
<path d="M21.8661 26.3083C17.6973 22.0748 14.2781 18.6011 14.2781 18.5934C14.2781 18.5856 14.8747 18.5701 15.6014 18.5546C16.9247 18.5314 16.9324 18.5314 17.2154 18.3143C17.4525 18.1282 17.7279 17.6164 19.0818 14.8794L20.6652 11.6616L20.9559 11.6848L21.2465 11.7081L23.6408 16.3991C24.9488 18.9811 26.3104 21.6483 26.6622 22.3307C27.3201 23.6178 27.5342 23.9202 27.9014 24.0753C28.1691 24.1916 28.4674 24.0908 28.7581 23.7806C28.8652 23.6643 30.1579 21.7957 31.6266 19.6169C34.2732 15.6857 34.2962 15.6625 34.5715 15.6392L34.8546 15.616L35.7342 16.9729C36.3232 17.8878 36.698 18.3918 36.8587 18.4926C37.1035 18.6399 37.2488 18.6477 40.8822 18.6477C44.179 18.6477 44.6456 18.6632 44.6456 18.764C44.6456 18.826 44.5997 18.8803 44.5538 18.8803C44.5003 18.8803 41.104 22.2842 37.0117 26.4401C32.9193 30.5961 29.546 34 29.5154 34C29.4848 34 26.0426 30.5341 21.8661 26.3083Z" fill="#E6274E"/>
<path d="M24.8799 14.67C23.1665 11.2971 21.6978 8.45929 21.629 8.38176C21.4607 8.18791 20.9405 7.94755 20.7876 8.00182C20.298 8.18016 20.1986 8.3585 18.1792 12.4525L16.1904 16.4766H13.9338C12.4805 16.4766 11.6773 16.4456 11.6773 16.3991C11.6773 16.3603 11.7155 16.3216 11.7538 16.3216C11.9068 16.3216 11.815 16.1587 11.3637 15.647C10.9047 15.1197 10.5452 14.6157 10.2239 14.0342C9.87207 13.4139 9.612 12.8712 9.612 12.7859C9.612 12.7393 9.5508 12.561 9.48196 12.3982C9.15304 11.6306 9.0536 10.9095 9.0536 9.34322C9.04595 7.75371 9.15304 7.0016 9.46666 6.26499C9.5508 6.07891 9.612 5.88506 9.612 5.83079C9.612 5.67571 10.1627 4.63672 10.6064 3.96214C11.5626 2.49669 13.4902 0.984721 15.0047 0.503991C15.173 0.449715 15.3489 0.387685 15.3872 0.35667C15.4331 0.333409 15.739 0.248119 16.0756 0.162828C16.9706 -0.0542759 19.4795 -0.0542759 20.3592 0.162828C20.6958 0.240365 21.0094 0.333409 21.0476 0.35667C21.0935 0.387685 21.2618 0.449715 21.4301 0.503991C21.8355 0.62805 22.6769 1.03124 22.7305 1.12429C22.7534 1.17081 22.8452 1.20182 22.9217 1.20182C22.9982 1.20182 23.0747 1.23284 23.09 1.26385C23.1053 1.30262 23.3195 1.46545 23.5719 1.62828C23.8473 1.80661 25.1094 3.01619 26.7693 4.68324L29.5001 7.4358L32.2385 4.68324C34.5715 2.32611 35.39 1.58176 35.9713 1.26385C36.0325 1.22509 36.1396 1.17081 36.2161 1.12429C36.5909 0.914937 37.3023 0.589282 37.57 0.503991C37.7383 0.449715 37.9142 0.387685 37.9525 0.35667C37.9984 0.333409 38.3043 0.240365 38.6409 0.162828C39.1381 0.0387685 39.5435 0.00775371 40.7445 0.00775371C42.3202 0 43.0469 0.100798 43.7812 0.434208C43.9648 0.519498 44.156 0.581528 44.2096 0.581528C44.3626 0.581528 45.4717 1.18632 46.0989 1.61277C46.9251 2.17879 47.9042 3.20228 48.4626 4.0707C48.715 4.47389 48.9598 4.84607 49.0057 4.90034C49.0439 4.95462 49.0821 5.03991 49.0821 5.09418C49.0821 5.14846 49.151 5.31129 49.2351 5.45086C49.3193 5.59042 49.3881 5.75325 49.3881 5.80753C49.3881 5.8618 49.4493 6.04789 49.5182 6.21072C49.8318 6.94732 49.9465 7.70718 49.9771 9.28894C49.9924 10.1496 49.9771 10.8707 49.9389 10.9172C49.9006 10.9715 49.8241 11.2584 49.7706 11.553C49.7094 11.8554 49.6405 12.1346 49.6176 12.1733C49.587 12.2198 49.5182 12.3904 49.4646 12.561C49.3422 12.972 48.9445 13.8249 48.8527 13.8791C48.8068 13.9024 48.7762 13.9799 48.7762 14.042C48.7762 14.2281 47.8277 15.4919 47.3305 15.9649C47.078 16.213 47.0245 16.3991 47.2081 16.3991C47.2693 16.3991 47.3228 16.4534 47.3228 16.5231C47.3228 16.6395 47.254 16.6472 46.8562 16.6007C46.5961 16.5774 44.4238 16.5542 42.0372 16.5542H37.6924L37.2487 15.8563C36.0019 13.8791 35.2523 12.7859 35.0687 12.6463C34.7857 12.4369 34.4568 12.4602 34.1432 12.7006C33.9825 12.8169 32.8122 14.4839 31.2135 16.8566L28.5439 20.8187H28.2762H28.0085L24.8799 14.67Z" fill="#E6274E"/>
<path d="M27.5494 24.2381C27.1899 24.021 27.1058 23.8892 26.4326 22.5633C26.0808 21.881 24.7192 19.2137 23.4112 16.6317C22.0955 14.0575 20.994 11.933 20.9558 11.9252C20.9252 11.9097 20.1832 13.3441 19.3112 15.112C17.5213 18.7407 17.5289 18.733 16.741 18.7795C16.4963 18.795 14.844 18.7795 13.0541 18.7485C9.4819 18.6787 9.5584 18.6864 9.19123 18.1824C9.03825 17.9731 9 17.8258 9 17.4768C9 17.0659 9.02295 17.0194 9.30597 16.7325C9.50485 16.5231 9.70373 16.4068 9.89496 16.3681C10.0556 16.3448 11.486 16.2983 13.0771 16.2673L15.9761 16.2207L17.9496 12.2043C20.0761 7.90102 20.1144 7.83899 20.734 7.7382C21.0629 7.68392 21.606 7.87776 21.8278 8.12588C21.9196 8.21892 23.3959 11.0645 25.1093 14.4374C26.8304 17.818 28.2608 20.5783 28.2914 20.5628C28.3144 20.5551 29.5153 18.8027 30.9457 16.6705C32.3838 14.5382 33.6841 12.6773 33.8371 12.5455C34.2961 12.1268 34.9616 12.1113 35.3976 12.5067C35.52 12.623 36.1396 13.5225 36.7591 14.4994L37.8989 16.2828L43.4446 16.3293L48.9979 16.3758L49.3269 16.5542C49.7858 16.7945 50 17.1434 50 17.6397C50 18.1437 49.7858 18.4771 49.3192 18.7097L48.9597 18.8803H42.9244C37.0269 18.8803 36.8739 18.8725 36.6291 18.7252C36.4608 18.6244 36.0937 18.1204 35.497 17.2055C34.755 16.0502 34.6021 15.8486 34.5103 15.9416C34.4567 16.0036 33.2481 17.7792 31.8254 19.8883C30.4103 21.9973 29.1558 23.8271 29.0487 23.9434C28.9416 24.0675 28.758 24.2148 28.6433 24.2768C28.3526 24.4319 27.8248 24.4164 27.5494 24.2381Z" fill="black"/>
<path d="M19.9815 48H18.294L21.3665 39.2727H23.3182L26.3949 48H24.7074L22.3764 41.0625H22.3082L19.9815 48ZM20.0369 44.5781H24.6392V45.848H20.0369V44.5781Z" fill="#1A1A1A"/>
<path d="M27.4762 48V41.4545H28.9506V42.5668H29.0273C29.1637 42.1918 29.3896 41.8991 29.7049 41.6889C30.0202 41.4759 30.3967 41.3693 30.8342 41.3693C31.2773 41.3693 31.6509 41.4773 31.9549 41.6932C32.2617 41.9062 32.4776 42.1974 32.6026 42.5668H32.6708C32.8157 42.2031 33.06 41.9134 33.4038 41.6974C33.7504 41.4787 34.1609 41.3693 34.6353 41.3693C35.2376 41.3693 35.729 41.5597 36.1097 41.9403C36.4904 42.321 36.6808 42.8764 36.6808 43.6065V48H35.1339V43.8452C35.1339 43.4389 35.0259 43.142 34.81 42.9545C34.5941 42.7642 34.3299 42.669 34.0174 42.669C33.6452 42.669 33.354 42.7855 33.1438 43.0185C32.9364 43.2486 32.8327 43.5483 32.8327 43.9176V48H31.32V43.7812C31.32 43.4432 31.2177 43.1733 31.0131 42.9716C30.8114 42.7699 30.5472 42.669 30.2205 42.669C29.9989 42.669 29.7972 42.7259 29.6154 42.8395C29.4336 42.9503 29.2887 43.108 29.1808 43.3125C29.0728 43.5142 29.0188 43.75 29.0188 44.0199V48H27.4762ZM38.2457 48V41.4545H39.7884V48H38.2457ZM39.0213 40.5256C38.777 40.5256 38.5668 40.4446 38.3906 40.2827C38.2145 40.1179 38.1264 39.9205 38.1264 39.6903C38.1264 39.4574 38.2145 39.2599 38.3906 39.098C38.5668 38.9332 38.777 38.8509 39.0213 38.8509C39.2685 38.8509 39.4787 38.9332 39.652 39.098C39.8281 39.2599 39.9162 39.4574 39.9162 39.6903C39.9162 39.9205 39.8281 40.1179 39.652 40.2827C39.4787 40.4446 39.2685 40.5256 39.0213 40.5256Z" fill="#ED244E"/>
</svg>
