<svg width="157" height="167" viewBox="0 0 157 167" fill="none" xmlns="http://www.w3.org/2000/svg">
<path d="M95.4124 165.979C94.2822 165.506 93.5629 164.865 91.4737 162.3C88.494 158.655 87.9802 157.001 89.0762 154.875C89.9667 153.188 98.7004 146.775 100.139 146.775C100.584 146.775 101.612 147.416 102.605 148.328C104.146 149.745 104.317 149.813 105.071 149.408C106.852 148.429 111.887 144.244 111.784 143.839C111.681 143.333 109.01 142.118 103.461 140.025C102.331 139.586 100.79 138.945 100.002 138.608C99.2484 138.27 98.4264 138 98.1867 138C97.1934 138 95.8577 136.954 95.3439 135.739C94.8302 134.558 94.5904 132.33 93.8369 121.901C93.5972 118.459 93.2889 118.121 91.6107 119.37C89.3845 120.923 84.1785 123.69 82.5687 124.129C80.7192 124.635 77.4312 124.601 75.3762 124.028C73.4925 123.555 72.7732 123.184 67.944 120.315C66.1287 119.235 64.4505 118.459 64.2792 118.594C64.0737 118.695 63.9025 119.944 63.9025 121.395C63.8682 125.783 62.738 135.469 62.1215 136.38C61.7447 136.92 60.546 137.595 58.6965 138.304C57.121 138.911 55.1687 139.688 54.3125 140.025C53.4562 140.363 51.4012 141.173 49.6887 141.814C42.8045 144.446 41.8455 144.818 41.3317 145.121C41.0235 145.256 39.859 145.729 38.7287 146.1C37.5985 146.505 36.2285 147.011 35.6462 147.281C34.4817 147.788 28.7962 149.981 27.8715 150.285C27.1522 150.488 26.707 149.779 26.0905 147.416L25.6452 145.729L27.0152 145.088C27.803 144.716 28.5565 144.413 28.762 144.413C28.9332 144.413 29.721 144.143 30.4745 143.771C31.2622 143.434 33.0775 142.725 34.5502 142.219C36.023 141.713 37.2902 141.139 37.393 141.004C37.4957 140.835 37.8382 140.7 38.1807 140.7C38.7287 140.7 40.2357 140.126 43.5237 138.675C43.9005 138.54 46.435 137.528 49.175 136.481C51.915 135.469 54.8262 134.254 55.6825 133.849L57.2237 133.106L57.7032 129.833C57.9772 128.044 58.08 126.356 57.9772 126.086C57.8745 125.816 56.984 125.411 55.9565 125.175C53.696 124.669 47.2912 122.408 45.3732 121.429C42.599 120.045 39.9275 118.02 37.5642 115.523C36.2285 114.105 34.9612 112.62 34.7215 112.148C32.0842 107.321 31.4335 105.263 31.1252 101.314L30.9197 98.5125H36.023C40.407 98.5125 41.3317 98.4113 42.6675 97.8038C44.5855 96.96 45.3047 96.3188 46.161 94.6988C46.7432 93.5175 46.8117 92.9775 46.572 88.59C46.298 83.0213 46.5035 82.3125 48.2845 82.3125C49.8942 82.3125 50.3737 83.055 51.0245 86.5313C51.5725 89.3325 52.3945 93.045 53.3535 96.825C53.559 97.6688 53.8672 98.4788 54.0042 98.6475C54.1755 98.85 54.3125 99.255 54.3125 99.5588C54.3125 101.246 60.409 108.064 65.478 112.08C68.7317 114.645 73.013 117.48 74.8625 118.256C77.1572 119.269 81.6782 119.168 83.7675 118.121C89.6242 115.118 100.824 105.094 103.05 100.909C103.975 99.1538 105.105 95.1375 105.722 91.6275C106.407 87.4088 107.16 84.1013 107.537 83.325C107.845 82.6838 108.256 82.4475 109.181 82.38C111.476 82.1775 111.887 83.6625 111.099 89.4338C110.482 94.0238 111.441 96.0825 115.003 97.8713C116.305 98.5125 116.99 98.58 121.511 98.58C124.285 98.58 127.025 98.4788 127.573 98.3438L128.566 98.1413L128.806 102.799C129.423 113.936 127.813 125.681 124.662 133.106C124.456 133.68 123.84 135.064 123.36 136.178C122.881 137.325 122.196 138.776 121.785 139.418C121.408 140.093 121.168 140.835 121.271 141.071C121.374 141.341 122.504 141.915 123.771 142.354C125.039 142.759 126.546 143.333 127.094 143.535C127.676 143.771 129.08 144.345 130.279 144.784C132.128 145.493 132.402 145.695 132.231 146.269C132.094 146.64 131.82 147.551 131.58 148.294C130.93 150.589 130.793 150.656 128.806 149.779C126.032 148.564 118.497 145.763 118.017 145.763C117.675 145.763 116.921 146.37 116.339 147.079C115.723 147.821 114.147 149.306 112.777 150.386C107.879 154.369 107.879 154.335 108.53 155.246C109.386 156.428 109.284 158.318 108.359 159.161C107.194 160.174 101.509 164.156 99.7964 165.101C97.9812 166.148 96.5427 166.418 95.4124 165.979ZM117.538 136.178C118.634 134.018 119.593 131.756 120.929 128.213C122.093 125.141 123.84 113.565 123.258 112.991C123.018 112.755 121.682 113.869 119.353 116.13C115.14 120.248 112.606 121.699 105.859 123.825C99.5909 125.816 99.8649 125.681 99.8649 126.863C99.8649 128.55 100.584 132.735 100.961 133.174C101.132 133.41 102.023 133.815 102.879 134.119C103.769 134.423 105.174 134.963 106.03 135.3C106.886 135.638 108.427 136.245 109.455 136.65C110.482 137.021 111.647 137.494 112.024 137.663C113.462 138.338 115.449 138.878 115.894 138.743C116.168 138.641 116.887 137.494 117.538 136.178Z" fill="#ED244E" stroke="#ED244E"/>
<path d="M18.5897 130.541C18.2472 130.339 16.843 128.482 15.4387 126.424C9.89022 118.02 6.15697 110.021 3.79372 101.381C1.87572 94.4287 0.950966 83.5612 1.53322 75.5287C1.90997 70.4325 2.76622 64.1887 3.27997 62.9062C3.45122 62.535 3.75947 61.4887 3.96497 60.5437C4.54722 58.215 6.63647 52.0725 7.45847 50.25C8.93122 46.9425 9.23947 46.3012 10.0615 44.6812C11.6027 41.7112 13.281 38.8087 14.8907 36.4462C18.5897 30.945 21.0215 27.975 25.6795 23.385C34.8585 14.34 44.3115 8.50125 56.025 4.6875C65.5122 1.5825 77.1572 0.333749 86.165 1.4475C93.5287 2.35875 101.509 4.35 106.372 6.4425C109.386 7.75875 110.311 8.16375 110.996 8.50125C111.373 8.70375 112.469 9.24375 113.394 9.71625C115.38 10.7287 115.962 11.1 120.586 14.1037C127.95 18.8625 135.04 25.68 140.828 33.5437C142.78 36.1425 144.321 38.505 144.972 39.7875C145.212 40.26 145.76 41.2387 146.205 41.9812C147.815 44.7825 149.048 47.28 150.212 50.25C150.623 51.2625 151.103 52.4775 151.308 52.95C154.391 60.51 156.377 71.445 156.377 80.9625C156.377 96.8925 152.096 111.034 143.02 125.074C139.972 129.765 139.218 130.541 137.78 130.575C136.718 130.575 135.142 129.157 135.142 128.246C135.142 127.706 136.17 126.052 138.67 122.576C139.355 121.597 139.937 120.72 139.937 120.619C139.937 120.551 140.451 119.674 141.068 118.695C142.677 116.13 146.102 109.11 146.102 108.334C146.102 108.097 146.308 107.591 146.582 107.186C146.856 106.781 147.404 105.229 147.815 103.744C148.192 102.259 148.74 100.369 149.014 99.525C149.733 97.23 150.486 93.0112 150.932 89.0625C151.377 85.1812 151.137 72.8625 150.555 69.9937C150.384 69.0825 150.075 67.395 149.904 66.2812C149.699 65.1675 149.288 63.4125 149.014 62.4C147.644 57.675 146.685 54.7725 146.411 54.5025C146.239 54.3 146.102 53.9625 146.102 53.6925C146.102 52.8487 142.129 44.6475 140.759 42.6225C140.314 41.9812 139.937 41.34 139.937 41.2387C139.937 41.1375 139.389 40.2937 138.739 39.4162C138.088 38.505 137.54 37.695 137.54 37.5937C137.54 37.4925 136.444 36.0075 135.074 34.2862C130.553 28.515 123.977 22.3725 118.086 18.4237C115.346 16.5675 108.941 12.7875 108.564 12.7875C108.427 12.7875 107.4 12.3487 106.235 11.8087C103.187 10.3575 96.577 8.0625 95.4467 8.0625C95.1385 8.0625 94.2822 7.82625 93.5287 7.59C91.0627 6.74625 83.7675 5.9025 78.8012 5.86875C73.8007 5.86875 68.1495 6.4425 64.93 7.28625C63.9025 7.55625 62.3612 7.89375 61.505 8.0625C60.0322 8.3325 56.573 9.4125 55.1687 10.0537C54.792 10.2225 53.422 10.7962 52.0862 11.3025C37.0162 17.2425 21.8777 31.8562 14.103 47.955C13.281 49.6762 12.322 51.7687 12.0137 52.6125C11.6712 53.4562 11.2945 54.435 11.1232 54.8062C10.4725 56.2575 8.82847 61.6912 8.31472 64.0875C8.00647 65.4712 7.59547 67.395 7.42422 68.3062C6.63647 72.0525 6.22547 81.0975 6.63647 86.43C7.01322 91.4925 7.25297 93.0787 8.31472 98.175C8.96547 101.314 10.7465 106.882 11.1917 107.119C11.363 107.254 11.5 107.625 11.5 107.962C11.5 109.076 16.295 118.391 18.6925 121.969C20.542 124.702 21.8777 126.559 22.1517 126.727C22.323 126.829 22.46 127.402 22.46 128.044C22.46 128.887 22.186 129.394 21.3982 130.035C20.268 130.98 19.583 131.115 18.5897 130.541Z" fill="#ED244E" stroke="#ED244E"/>
<path d="M76.8832 105.904C75.6845 105.566 72.4307 103.372 72.2252 102.731C72.1567 102.529 72.9102 102.022 73.8692 101.55C75.3762 100.875 76.1297 100.74 78.9725 100.74C82.192 100.74 83.425 101.044 85.7882 102.495C85.891 102.529 85.5142 103.001 85.0005 103.507C83.0482 105.566 79.452 106.612 76.8832 105.904Z" fill="#ED244E" stroke="#ED244E"/>
<path d="M33.831 91.5938C32.6322 91.1888 31.502 90.6825 31.2622 90.4463C31.0567 90.2438 30.7142 90.075 30.4745 90.075C29.584 90.075 26.3645 86.0925 25.7822 84.2363C24.926 81.6038 24.926 66.0113 25.7822 63.5813C26.6385 61.05 28.1112 59.1938 30.3375 57.7425C32.1185 56.595 32.9405 56.325 36.7422 55.65C43.3867 54.5025 43.4552 54.4688 43.6265 54.03C43.832 53.3888 39.5507 51.9375 37.3587 51.9375C36.8792 51.9375 36.5025 51.8363 36.5025 51.735C36.5025 51.0938 38.3177 45.0188 39.5165 41.6438C40.9207 37.7625 41.092 37.3238 42.0852 35.6025C42.599 34.6913 43.01 33.8813 43.01 33.78C43.01 33.6788 43.7292 32.565 44.5855 31.3163C46.6062 28.3463 51.2642 23.7563 54.2097 21.8325C56.6415 20.2463 61.0597 17.85 61.5735 17.85C61.7105 17.85 62.4982 17.58 63.3202 17.2088C66.3685 15.8925 73.3212 14.8125 78.8012 14.8125C96.9537 14.8125 111.133 23.8575 117.332 39.45C118.6 42.6225 118.942 43.5675 120.072 47.2125C120.655 49.17 121.237 51.0263 121.34 51.3638C121.477 51.8363 121.305 51.9375 120.449 51.9375C119.49 51.9375 118.531 52.1063 114.661 53.0175C113.154 53.3888 112.606 53.8275 113.085 54.3C113.257 54.4688 116.134 54.975 119.49 55.4813C126.272 56.46 127.094 56.7975 129.799 59.5313C132.402 62.2313 132.574 63.1763 132.574 74.2125C132.574 83.5613 132.539 83.865 131.786 85.4513C130.895 87.24 129.388 89.0625 127.916 90.1088C125.381 91.8975 119.49 93.0788 118.428 92.0325C118.12 91.7288 118.017 88.2188 118.017 78.3638C118.017 65.6063 118.052 65.1 118.668 64.7625C119.73 64.2225 120.312 64.3575 121.614 65.4713L122.812 66.5175V76.2375C122.812 82.9538 122.915 86.0588 123.189 86.2275C123.669 86.4975 126.1 84.81 127.059 83.5613C127.744 82.65 127.779 82.2113 127.779 74.28C127.779 64.6613 127.744 64.4925 124.354 61.4213C121.99 59.295 119.559 58.5863 115.106 58.755L112.024 58.8563L111.955 64.0875C111.921 66.9563 111.887 69.5888 111.852 69.9263C111.852 70.23 111.613 70.5 111.304 70.5C110.585 70.5 103.667 67.0575 100.721 65.2688C99.4197 64.425 98.084 63.6488 97.81 63.5138C95.618 62.5013 80.2055 51.0263 78.63 49.2713C77.7737 48.3263 73.0472 44.8838 72.8075 45.0188C71.9855 45.525 75.3077 50.1825 80 55.11C83.0482 58.2825 91.2682 64.6275 95.344 66.9563C96.4057 67.5638 99.317 69.5888 101.612 71.3438C102.845 72.2888 104.66 73.5713 105.653 74.1788C106.612 74.7863 107.366 75.36 107.297 75.4275C107.229 75.495 106.509 75.36 105.653 75.09C104.831 74.82 102.982 74.28 101.577 73.8413C88.6652 69.9938 73.2185 57.0675 65.2725 43.5C62.7722 39.18 62.19 38.91 62.19 42.0825C62.1557 47.28 60.409 54.1988 58.08 58.3163C57.6005 59.1263 57.0182 60.1388 56.8127 60.5438C55.6482 62.6025 51.2642 66.855 48.0105 69.1163C45.75 70.6688 45.5787 70.7363 45.2705 69.96C45.0307 69.3188 45.7157 67.9688 47.0172 66.585C48.079 65.4713 50.7847 61.8263 52.2917 59.5313C55.1002 55.1775 57.8745 46.74 56.6757 45.9975C56.4017 45.8288 56.0935 45.9638 55.888 46.3688C54.9632 47.8875 49.3805 54.7388 47.4967 56.595L45.4075 58.6875H42.5305C39.448 58.6875 35.5777 59.6325 34.79 60.5438C34.5502 60.8138 34.1735 61.05 33.968 61.0838C33.2145 61.1175 31.3307 63.7163 30.6457 65.5725C30.0977 67.1925 29.995 68.3738 29.995 74.6513C29.995 82.5488 29.9265 82.245 32.3582 84.7763C33.009 85.4513 33.831 86.025 34.1735 86.025C34.7557 86.025 34.79 85.4513 34.79 76.575V67.125L35.9202 65.8763C36.7765 64.965 37.3587 64.6613 38.1465 64.6613C38.763 64.6613 39.3452 64.7625 39.5165 64.8975C39.6535 65.0325 39.859 70.9388 39.9617 78.0263C40.1672 92.8763 40.2357 92.4713 37.5985 92.4038C36.708 92.37 35.0297 91.9988 33.831 91.5938Z" fill="#ED244E" stroke="#ED244E"/>
</svg>
