<svg class="img-fluid" id="outputsvg" xmlns="http://www.w3.org/2000/svg" style="transform: none; transform-origin: 50% 50%; cursor: move; max-height: none;" width="800" height="800" viewBox="0 0 8000 8000"><g id="l1Wjirxj5NUnr1lQYtheLWO" fill="rgb(230,39,78)" style="transform: none;"><g style="transform: none;"><path id="p1FumcUYWz" d="M5250 7208 c-30 -6 -67 -19 -82 -29 -14 -11 -30 -19 -35 -19 -11 0 -84 -75 -110 -115 -11 -16 -26 -48 -33 -70 -7 -22 -16 -44 -21 -49 -12 -13 -12 -223 0 -230 4 -3 14 -26 21 -51 14 -52 82 -144 131 -181 18 -13 48 -29 68 -35 20 -6 40 -15 46 -20 5 -5 55 -9 110 -9 118 0 169 19 245 91 l45 42 5 -64 5 -64 55 0 55 0 0 400 0 400 -55 0 -55 0 -5 -63 -5 -64 -30 32 c-53 56 -109 87 -177 99 -74 13 -102 13 -178 -1z m249 -115 c58 -33 81 -57 113 -113 22 -38 39 -113 40 -170 1 -44 -23 -154 -36 -169 -9 -10 -16 -22 -16 -27 0 -13 -83 -94 -97 -94 -6 0 -24 -7 -39 -15 -18 -9 -57 -15 -104 -15 -47 0 -86 6 -104 15 -15 8 -34 15 -41 15 -15 0 -97 86 -115 121 -29 54 -50 213 -31 232 6 6 11 23 11 39 0 32 46 109 87 144 57 50 102 64 197 64 78 0 95 -3 135 -27z"></path><path id="pc2qlw1kB" d="M7150 7206 c-173 -36 -290 -197 -290 -400 0 -73 20 -166 42 -198 10 -14 18 -31 18 -37 0 -18 120 -131 138 -131 10 0 32 -9 50 -20 27 -17 50 -20 135 -20 89 0 108 3 152 25 28 14 69 44 92 66 23 23 47 38 52 34 7 -4 11 -81 11 -226 l0 -219 50 0 50 0 -2 562 -3 561 -47 2 -48 2 0 -58 c0 -32 -4 -60 -8 -63 -5 -3 -22 8 -38 25 -52 55 -108 86 -176 98 -76 13 -104 13 -178 -3z m243 -108 c51 -28 115 -95 124 -127 3 -14 12 -36 19 -50 9 -16 14 -59 14 -111 0 -52 -5 -95 -14 -111 -7 -14 -16 -36 -19 -50 -10 -38 -87 -115 -139 -138 -68 -30 -172 -29 -242 3 -65 30 -107 71 -143 139 -25 47 -27 62 -28 152 0 78 4 109 19 140 31 64 82 121 133 148 42 22 61 26 142 26 79 1 100 -3 134 -21z"></path><path id="p1HDEDmGmm" d="M4023 7202 l-63 -3 0 -525 0 -526 308 4 307 3 45 29 c104 67 140 130 140 242 0 86 -23 137 -87 194 -24 21 -43 40 -43 42 0 3 22 18 48 35 26 16 65 51 86 76 35 42 39 55 44 116 7 108 -3 153 -48 204 -36 41 -56 53 -145 93 -29 12 -433 24 -592 16z m590 -121 c138 -69 137 -250 -3 -330 -45 -26 -47 -26 -294 -29 -198 -3 -251 -1 -257 10 -10 15 -12 338 -3 363 6 14 33 16 258 13 242 -3 253 -4 299 -27z m-63 -475 c45 -24 90 -72 90 -96 0 -10 5 -22 10 -25 14 -9 12 -73 -3 -115 -13 -38 -50 -90 -63 -90 -4 0 -16 -8 -27 -17 -17 -16 -47 -18 -255 -21 -186 -3 -237 -1 -243 10 -14 22 -11 352 4 367 9 9 64 11 232 9 191 -3 225 -6 255 -22z"></path><path id="p1HFYgs0Bu" d="M5985 7197 c-3 -6 -4 -188 -3 -402 l3 -390 49 0 50 0 -3 58 c-3 69 9 73 65 21 74 -67 116 -84 213 -84 72 0 96 4 137 24 50 24 144 109 144 131 0 6 9 28 20 50 19 36 20 59 20 321 l0 282 -50 0 -49 1 -4 -267 c-2 -147 -7 -281 -12 -299 -10 -42 -65 -106 -115 -132 -29 -15 -59 -21 -106 -21 -105 0 -179 44 -231 135 l-28 50 -3 261 -3 262 -31 6 c-45 9 -58 7 -63 -7z"></path><path id="p18E68mHYR" d="M3002 3838 c-545 -546 -992 -994 -992 -995 0 -1 78 -3 173 -5 173 -3 174 -3 211 -31 31 -24 67 -90 244 -443 l207 -415 38 3 38 3 313 605 c171 333 349 677 395 765 86 166 114 205 162 225 35 15 74 2 112 -38 14 -15 183 -256 375 -537 346 -507 349 -510 385 -513 l37 -3 115 175 c77 118 126 183 147 196 32 19 51 20 526 20 431 0 492 2 492 15 0 8 -6 15 -12 15 -7 0 -451 439 -986 975 -535 536 -976 975 -980 975 -4 0 -454 -447 -1000 -992z"></path><path id="prpCYcsVs" d="M3396 2337 c-224 -435 -416 -801 -425 -811 -22 -25 -90 -56 -110 -49 -64 23 -77 46 -341 574 l-260 519 -295 0 c-190 0 -295 -4 -295 -10 0 -5 5 -10 10 -10 20 0 8 -21 -51 -87 -60 -68 -107 -133 -149 -208 -46 -80 -80 -150 -80 -161 0 -6 -8 -29 -17 -50 -43 -99 -56 -192 -56 -394 -1 -205 13 -302 54 -397 11 -24 19 -49 19 -56 0 -20 72 -154 130 -241 125 -189 377 -384 575 -446 22 -7 45 -15 50 -19 6 -3 46 -14 90 -25 117 -28 445 -28 560 0 44 10 85 22 90 25 6 4 28 12 50 19 53 16 163 68 170 80 3 6 15 10 25 10 10 0 20 4 22 8 2 5 30 26 63 47 36 23 201 179 418 394 l357 355 358 -355 c305 -304 412 -400 488 -441 8 -5 22 -12 32 -18 49 -27 142 -69 177 -80 22 -7 45 -15 50 -19 6 -3 46 -15 90 -25 65 -16 118 -20 275 -20 206 -1 301 12 397 55 24 11 49 19 56 19 20 0 165 78 247 133 108 73 236 205 309 317 33 52 65 100 71 107 5 7 10 18 10 25 0 7 9 28 20 46 11 18 20 39 20 46 0 7 8 31 17 52 41 95 56 193 60 397 2 111 0 204 -5 210 -5 7 -15 44 -22 82 -8 39 -17 75 -20 80 -4 6 -13 28 -20 50 -16 53 -68 163 -80 170 -6 3 -10 13 -10 21 0 24 -124 187 -189 248 -33 32 -40 56 -16 56 8 0 15 7 15 16 0 15 -9 16 -61 10 -34 -3 -318 -6 -630 -6 l-568 0 -58 -90 c-163 -255 -261 -396 -285 -414 -37 -27 -80 -24 -121 7 -21 15 -174 230 -383 536 l-349 511 -35 0 -35 0 -409 -793z"></path></g></g><g id="l5CwdEzwFuo6IMaPYyJKgM8" fill="rgb(0,0,0)" style="transform: none;"><g style="transform: none;"><path id="pTIqFks2u" d="M735 7209 c-232 -29 -402 -222 -420 -479 -17 -243 75 -436 255 -536 143 -80 374 -77 515 4 54 32 155 121 155 137 0 4 8 19 19 33 10 15 22 37 25 50 7 21 5 22 -42 22 -46 0 -51 -2 -75 -39 -40 -60 -96 -110 -156 -138 -49 -23 -65 -26 -177 -25 -115 0 -126 1 -187 30 -61 29 -167 121 -167 145 0 6 -6 18 -14 26 -23 28 -49 124 -54 204 -5 89 16 194 54 267 22 41 96 130 109 130 3 0 18 9 33 19 15 11 56 30 92 41 53 18 82 21 160 18 61 -2 106 -9 125 -20 17 -8 42 -21 58 -28 34 -17 92 -74 123 -122 24 -38 29 -40 92 -42 30 -1 32 1 27 23 -11 45 -128 191 -152 191 -6 0 -16 7 -23 15 -24 29 -119 63 -207 74 -48 6 -90 10 -93 10 -3 -1 -36 -5 -75 -10z"></path><path id="pHirBxq80" d="M1730 7206 c-75 -13 -165 -67 -208 -125 -15 -20 -30 -37 -34 -39 -5 -2 -8 -10 -8 -18 0 -8 -10 -34 -22 -57 -18 -36 -21 -58 -21 -162 0 -106 3 -126 24 -170 48 -99 103 -161 168 -191 20 -9 49 -22 65 -30 19 -9 64 -14 124 -14 111 0 166 21 242 89 24 23 47 38 51 33 5 -4 9 -32 11 -62 l3 -55 45 0 45 0 3 398 2 397 -50 0 -50 0 0 -54 c0 -51 -18 -87 -28 -57 -2 7 -16 23 -31 37 -48 46 -108 74 -178 84 -79 11 -70 11 -153 -4z m238 -108 c50 -25 98 -80 130 -149 33 -68 31 -218 -2 -291 -50 -110 -141 -169 -261 -170 -94 -1 -165 31 -229 104 -25 29 -46 62 -46 73 0 12 -5 26 -11 32 -6 6 -14 43 -17 81 -9 137 52 258 161 318 61 33 210 34 275 2z"></path><path id="p1BKpw7sAO" d="M3278 7208 c-31 -5 -77 -20 -101 -34 -56 -31 -137 -101 -137 -119 0 -7 -6 -18 -14 -24 -8 -7 -27 -51 -41 -97 -21 -67 -26 -99 -22 -147 6 -77 34 -169 69 -223 29 -45 118 -124 139 -124 8 0 29 -9 47 -20 27 -17 50 -20 145 -20 62 0 117 4 122 8 6 5 26 15 45 22 47 18 125 83 159 134 15 22 34 64 41 91 7 28 17 54 21 60 5 5 9 35 9 67 l0 58 -337 2 -338 3 -3 33 c-6 62 49 150 126 204 44 31 53 33 148 36 93 3 105 2 150 -22 27 -15 62 -44 78 -66 28 -38 33 -40 83 -40 31 0 53 4 53 11 0 16 -54 91 -92 125 -52 49 -101 71 -176 83 -80 12 -94 12 -174 -1z m362 -489 c0 -45 -37 -113 -86 -159 -24 -22 -47 -40 -52 -40 -5 0 -23 -7 -40 -15 -42 -21 -162 -21 -204 -1 -17 9 -35 16 -40 16 -5 0 -26 16 -48 36 -47 44 -90 122 -90 164 l0 30 280 0 280 0 0 -31z"></path><path id="pmTvc7D1e" d="M2452 6803 l3 -398 50 0 50 0 3 93 c3 98 14 115 37 59 30 -73 152 -157 227 -157 l38 0 0 50 0 50 -34 0 c-19 0 -38 5 -41 10 -3 6 -17 10 -30 10 -35 0 -128 90 -161 157 l-29 58 -3 233 -3 232 -55 0 -54 0 2 -397z"></path><path id="pJlcmIXqi" d="M3745 3571 c-47 -28 -58 -45 -146 -216 -46 -88 -224 -432 -395 -765 -172 -332 -316 -606 -321 -607 -4 -2 -101 183 -215 411 -234 468 -233 467 -336 473 -32 2 -248 0 -482 -4 -467 -9 -457 -8 -505 -73 -20 -27 -25 -46 -25 -91 0 -53 3 -59 40 -96 26 -27 52 -42 77 -47 21 -3 208 -9 416 -13 l379 -6 258 -518 c278 -555 283 -563 364 -576 43 -7 114 18 143 50 12 12 205 379 429 814 225 436 412 792 416 790 3 -1 160 -227 347 -502 188 -275 358 -515 378 -532 60 -54 147 -56 204 -5 16 15 97 131 178 257 l149 230 725 6 726 6 43 23 c60 31 88 76 88 140 0 65 -28 108 -89 138 l-47 22 -789 0 c-771 0 -791 -1 -823 -20 -22 -13 -70 -78 -148 -196 -97 -149 -117 -175 -129 -163 -7 8 -165 237 -351 509 -185 272 -349 508 -363 523 -14 16 -38 35 -53 43 -38 20 -107 18 -143 -5z"></path></g></g></svg>