<svg width="41" height="34" viewBox="0 0 41 34" fill="none" xmlns="http://www.w3.org/2000/svg">
<path d="M12.866 26.3083C8.69717 22.0748 5.27795 18.6011 5.27795 18.5934C5.27795 18.5856 5.8746 18.5701 6.60128 18.5546C7.9246 18.5313 7.93225 18.5313 8.21527 18.3142C8.45239 18.1282 8.72777 17.6164 10.0817 14.8793L11.6651 11.6616L11.9558 11.6848L12.2464 11.7081L14.6406 16.3991C15.9487 18.9811 17.3102 21.6483 17.6621 22.3307C18.3199 23.6178 18.5341 23.9202 18.9013 24.0752C19.169 24.1915 19.4673 24.0907 19.758 23.7806C19.8651 23.6643 21.1578 21.7957 22.6265 19.6169C25.2731 15.6857 25.2961 15.6625 25.5714 15.6392L25.8545 15.6159L26.7341 16.9728C27.3231 17.8878 27.6979 18.3918 27.8586 18.4926C28.1033 18.6399 28.2487 18.6476 31.8821 18.6476C35.1789 18.6476 35.6455 18.6632 35.6455 18.764C35.6455 18.826 35.5996 18.8803 35.5537 18.8803C35.5002 18.8803 32.1039 22.2841 28.0115 26.4401C23.9192 30.5961 20.5459 34 20.5153 34C20.4847 34 17.0425 30.5341 12.866 26.3083Z" fill="#E6274E"/>
<path d="M15.8798 14.67C14.1664 11.2971 12.6978 8.45929 12.6289 8.38176C12.4606 8.18791 11.9405 7.94755 11.7875 8.00182C11.2979 8.18016 11.1985 8.3585 9.1791 12.4525L7.19029 16.4766H4.93376C3.48041 16.4766 2.67723 16.4456 2.67723 16.3991C2.67723 16.3603 2.71548 16.3216 2.75373 16.3216C2.90671 16.3216 2.81492 16.1587 2.36362 15.647C1.90466 15.1197 1.54515 14.6157 1.22388 14.0342C0.872011 13.4139 0.611936 12.8712 0.611936 12.7859C0.611936 12.7393 0.550742 12.561 0.481899 12.3982C0.152981 11.6306 0.0535408 10.9095 0.0535408 9.34322C0.0458915 7.75371 0.152981 7.0016 0.4666 6.26499C0.550742 6.07891 0.611936 5.88506 0.611936 5.83079C0.611936 5.67571 1.16268 4.63672 1.60634 3.96214C2.5625 2.49669 4.49011 0.984721 6.00466 0.503991C6.17294 0.449715 6.34888 0.387685 6.38712 0.35667C6.43302 0.333409 6.73899 0.248119 7.07556 0.162828C7.97052 -0.0542759 10.4795 -0.0542759 11.3591 0.162828C11.6957 0.240365 12.0093 0.333409 12.0476 0.35667C12.0935 0.387685 12.2617 0.449715 12.43 0.503991C12.8354 0.62805 13.6769 1.03124 13.7304 1.12429C13.7534 1.17081 13.8451 1.20182 13.9216 1.20182C13.9981 1.20182 14.0746 1.23284 14.0899 1.26385C14.1052 1.30262 14.3194 1.46545 14.5718 1.62828C14.8472 1.80661 16.1093 3.01619 17.7692 4.68324L20.5 7.4358L23.2384 4.68324C25.5714 2.32611 26.3899 1.58176 26.9713 1.26385C27.0325 1.22509 27.1395 1.17081 27.216 1.12429C27.5909 0.914937 28.3022 0.589282 28.57 0.503991C28.7382 0.449715 28.9142 0.387685 28.9524 0.35667C28.9983 0.333409 29.3043 0.240365 29.6409 0.162828C30.1381 0.0387685 30.5435 0.00775371 31.7444 0.00775371C33.3201 0 34.0468 0.100798 34.7812 0.434208C34.9647 0.519498 35.156 0.581528 35.2095 0.581528C35.3625 0.581528 36.4716 1.18632 37.0989 1.61277C37.925 2.17879 38.9041 3.20228 39.4625 4.0707C39.7149 4.47389 39.9597 4.84607 40.0056 4.90034C40.0438 4.95462 40.0821 5.03991 40.0821 5.09418C40.0821 5.14846 40.1509 5.31129 40.2351 5.45086C40.3192 5.59042 40.3881 5.75325 40.3881 5.80753C40.3881 5.8618 40.4492 6.04789 40.5181 6.21072C40.8317 6.94732 40.9464 7.70718 40.977 9.28894C40.9923 10.1496 40.977 10.8707 40.9388 10.9172C40.9006 10.9715 40.8241 11.2584 40.7705 11.553C40.7093 11.8554 40.6405 12.1346 40.6175 12.1733C40.5869 12.2198 40.5181 12.3904 40.4645 12.561C40.3422 12.972 39.9444 13.8249 39.8526 13.8791C39.8067 13.9024 39.7761 13.9799 39.7761 14.042C39.7761 14.2281 38.8276 15.4919 38.3304 15.9649C38.078 16.213 38.0244 16.3991 38.208 16.3991C38.2692 16.3991 38.3228 16.4534 38.3228 16.5231C38.3228 16.6395 38.2539 16.6472 37.8562 16.6007C37.5961 16.5774 35.4237 16.5542 33.0371 16.5542H28.6923L28.2487 15.8563C27.0019 13.8791 26.2522 12.7859 26.0687 12.6463C25.7856 12.4369 25.4567 12.4602 25.1431 12.7006C24.9825 12.8169 23.8121 14.4839 22.2134 16.8566L19.5438 20.8187H19.2761H19.0084L15.8798 14.67Z" fill="#E6274E"/>
<path d="M18.5494 24.2381C18.1899 24.021 18.1058 23.8892 17.4326 22.5633C17.0808 21.881 15.7192 19.2137 14.4112 16.6317C13.0955 14.0575 11.994 11.933 11.9558 11.9252C11.9252 11.9097 11.1832 13.3441 10.3112 15.112C8.52127 18.7407 8.52892 18.733 7.74104 18.7795C7.49627 18.795 5.84403 18.7795 4.0541 18.7485C0.481903 18.6787 0.558396 18.6864 0.191231 18.1825C0.0382463 17.9731 0 17.8258 0 17.4769C0 17.0659 0.0229478 17.0194 0.30597 16.7325C0.504851 16.5232 0.703731 16.4069 0.894963 16.3681C1.0556 16.3448 2.48601 16.2983 4.07705 16.2673L6.97612 16.2208L8.94963 12.2043C11.0761 7.90104 11.1144 7.83901 11.734 7.73821C12.0629 7.68393 12.606 7.87778 12.8278 8.1259C12.9196 8.21894 14.3959 11.0646 16.1093 14.4374C17.8304 17.818 19.2608 20.5783 19.2914 20.5628C19.3144 20.5551 20.5153 18.8027 21.9457 16.6705C23.3838 14.5382 24.6841 12.6773 24.8371 12.5455C25.2961 12.1268 25.9616 12.1113 26.3976 12.5067C26.52 12.623 27.1396 13.5225 27.7591 14.4994L28.8989 16.2828L34.4446 16.3293L39.9979 16.3758L40.3269 16.5542C40.7858 16.7945 41 17.1435 41 17.6397C41 18.1437 40.7858 18.4771 40.3192 18.7097L39.9597 18.8803H33.9244C28.0269 18.8803 27.8739 18.8725 27.6291 18.7252C27.4608 18.6244 27.0937 18.1204 26.497 17.2055C25.755 16.0502 25.6021 15.8486 25.5103 15.9416C25.4567 16.0037 24.2481 17.7793 22.8254 19.8883C21.4103 21.9973 20.1558 23.8271 20.0487 23.9435C19.9416 24.0675 19.758 24.2148 19.6433 24.2769C19.3526 24.4319 18.8248 24.4164 18.5494 24.2381Z" fill="black"/>
</svg>
