<svg width="68" height="57" viewBox="0 0 68 57" fill="none" xmlns="http://www.w3.org/2000/svg">
<g filter="url(#filter0_d_27_178)">
<path d="M26.866 26.3083C22.6972 22.0748 19.278 18.6011 19.278 18.5934C19.278 18.5856 19.8746 18.5701 20.6013 18.5546C21.9246 18.5313 21.9322 18.5313 22.2153 18.3142C22.4524 18.1282 22.7278 17.6164 24.0817 14.8793L25.6651 11.6616L25.9558 11.6848L26.2464 11.7081L28.6406 16.3991C29.9487 18.9811 31.3102 21.6483 31.6621 22.3307C32.3199 23.6178 32.5341 23.9202 32.9013 24.0752C33.169 24.1915 33.4673 24.0907 33.758 23.7806C33.8651 23.6643 35.1578 21.7957 36.6265 19.6169C39.2731 15.6857 39.2961 15.6625 39.5714 15.6392L39.8545 15.6159L40.7341 16.9728C41.3231 17.8878 41.6979 18.3918 41.8586 18.4926C42.1033 18.6399 42.2487 18.6476 45.8821 18.6476C49.1789 18.6476 49.6455 18.6632 49.6455 18.764C49.6455 18.826 49.5996 18.8803 49.5537 18.8803C49.5002 18.8803 46.1039 22.2841 42.0115 26.4401C37.9192 30.5961 34.5459 34 34.5153 34C34.4847 34 31.0425 30.5341 26.866 26.3083Z" fill="#E6274E"/>
<path d="M29.8798 14.67C28.1664 11.2971 26.6978 8.45929 26.6289 8.38176C26.4606 8.18791 25.9405 7.94755 25.7875 8.00182C25.2979 8.18016 25.1985 8.3585 23.1791 12.4525L21.1903 16.4766H18.9338C17.4804 16.4766 16.6772 16.4456 16.6772 16.3991C16.6772 16.3603 16.7155 16.3216 16.7537 16.3216C16.9067 16.3216 16.8149 16.1587 16.3636 15.647C15.9047 15.1197 15.5451 14.6157 15.2239 14.0342C14.872 13.4139 14.6119 12.8712 14.6119 12.7859C14.6119 12.7393 14.5507 12.561 14.4819 12.3982C14.153 11.6306 14.0535 10.9095 14.0535 9.34322C14.0459 7.75371 14.153 7.0016 14.4666 6.26499C14.5507 6.07891 14.6119 5.88506 14.6119 5.83079C14.6119 5.67571 15.1627 4.63672 15.6063 3.96214C16.5625 2.49669 18.4901 0.984721 20.0047 0.503991C20.1729 0.449715 20.3489 0.387685 20.3871 0.35667C20.433 0.333409 20.739 0.248119 21.0756 0.162828C21.9705 -0.0542759 24.4795 -0.0542759 25.3591 0.162828C25.6957 0.240365 26.0093 0.333409 26.0476 0.35667C26.0935 0.387685 26.2617 0.449715 26.43 0.503991C26.8354 0.62805 27.6769 1.03124 27.7304 1.12429C27.7534 1.17081 27.8451 1.20182 27.9216 1.20182C27.9981 1.20182 28.0746 1.23284 28.0899 1.26385C28.1052 1.30262 28.3194 1.46545 28.5718 1.62828C28.8472 1.80661 30.1093 3.01619 31.7692 4.68324L34.5 7.4358L37.2384 4.68324C39.5714 2.32611 40.3899 1.58176 40.9713 1.26385C41.0325 1.22509 41.1395 1.17081 41.216 1.12429C41.5909 0.914937 42.3022 0.589282 42.57 0.503991C42.7382 0.449715 42.9142 0.387685 42.9524 0.35667C42.9983 0.333409 43.3043 0.240365 43.6409 0.162828C44.1381 0.0387685 44.5435 0.00775371 45.7444 0.00775371C47.3201 0 48.0468 0.100798 48.7812 0.434208C48.9647 0.519498 49.156 0.581528 49.2095 0.581528C49.3625 0.581528 50.4716 1.18632 51.0989 1.61277C51.925 2.17879 52.9041 3.20228 53.4625 4.0707C53.7149 4.47389 53.9597 4.84607 54.0056 4.90034C54.0438 4.95462 54.0821 5.03991 54.0821 5.09418C54.0821 5.14846 54.1509 5.31129 54.2351 5.45086C54.3192 5.59042 54.3881 5.75325 54.3881 5.80753C54.3881 5.8618 54.4492 6.04789 54.5181 6.21072C54.8317 6.94732 54.9464 7.70718 54.977 9.28894C54.9923 10.1496 54.977 10.8707 54.9388 10.9172C54.9006 10.9715 54.8241 11.2584 54.7705 11.553C54.7093 11.8554 54.6405 12.1346 54.6175 12.1733C54.5869 12.2198 54.5181 12.3904 54.4645 12.561C54.3422 12.972 53.9444 13.8249 53.8526 13.8791C53.8067 13.9024 53.7761 13.9799 53.7761 14.042C53.7761 14.2281 52.8276 15.4919 52.3304 15.9649C52.078 16.213 52.0244 16.3991 52.208 16.3991C52.2692 16.3991 52.3228 16.4534 52.3228 16.5231C52.3228 16.6395 52.2539 16.6472 51.8562 16.6007C51.5961 16.5774 49.4237 16.5542 47.0371 16.5542H42.6923L42.2487 15.8563C41.0019 13.8791 40.2522 12.7859 40.0687 12.6463C39.7856 12.4369 39.4567 12.4602 39.1431 12.7006C38.9825 12.8169 37.8121 14.4839 36.2134 16.8566L33.5438 20.8187H33.2761H33.0084L29.8798 14.67Z" fill="#E6274E"/>
<path d="M32.5494 24.2381C32.1899 24.021 32.1058 23.8892 31.4326 22.5633C31.0808 21.881 29.7192 19.2137 28.4112 16.6317C27.0955 14.0575 25.994 11.933 25.9558 11.9252C25.9252 11.9097 25.1832 13.3441 24.3112 15.112C22.5213 18.7407 22.5289 18.733 21.741 18.7795C21.4963 18.795 19.844 18.7795 18.0541 18.7485C14.4819 18.6787 14.5584 18.6864 14.1912 18.1825C14.0382 17.9731 14 17.8258 14 17.4769C14 17.0659 14.0229 17.0194 14.306 16.7325C14.5049 16.5232 14.7037 16.4069 14.895 16.3681C15.0556 16.3448 16.486 16.2983 18.0771 16.2673L20.9761 16.2208L22.9496 12.2043C25.0761 7.90104 25.1144 7.83901 25.734 7.73821C26.0629 7.68393 26.606 7.87778 26.8278 8.1259C26.9196 8.21894 28.3959 11.0646 30.1093 14.4374C31.8304 17.818 33.2608 20.5783 33.2914 20.5628C33.3144 20.5551 34.5153 18.8027 35.9457 16.6705C37.3838 14.5382 38.6841 12.6773 38.8371 12.5455C39.2961 12.1268 39.9616 12.1113 40.3976 12.5067C40.52 12.623 41.1396 13.5225 41.7591 14.4994L42.8989 16.2828L48.4446 16.3293L53.9979 16.3758L54.3269 16.5542C54.7858 16.7945 55 17.1435 55 17.6397C55 18.1437 54.7858 18.4771 54.3192 18.7097L53.9597 18.8803H47.9244C42.0269 18.8803 41.8739 18.8725 41.6291 18.7252C41.4608 18.6244 41.0937 18.1204 40.497 17.2055C39.755 16.0502 39.6021 15.8486 39.5103 15.9416C39.4567 16.0037 38.2481 17.7793 36.8254 19.8883C35.4103 21.9973 34.1558 23.8271 34.0487 23.9435C33.9416 24.0675 33.758 24.2148 33.6433 24.2769C33.3526 24.4319 32.8248 24.4164 32.5494 24.2381Z" fill="black"/>
<path d="M12.0327 39.2727V48H10.6264L6.5142 42.0554H6.44176V48H4.8608V39.2727H6.27557L10.3835 45.2216H10.4602V39.2727H12.0327ZM16.5423 48.1278C15.9031 48.1278 15.3491 47.9872 14.8803 47.706C14.4116 47.4247 14.0479 47.0312 13.7894 46.5256C13.5337 46.0199 13.4059 45.429 13.4059 44.7528C13.4059 44.0767 13.5337 43.4844 13.7894 42.9759C14.0479 42.4673 14.4116 42.0724 14.8803 41.7912C15.3491 41.5099 15.9031 41.3693 16.5423 41.3693C17.1815 41.3693 17.7354 41.5099 18.2042 41.7912C18.6729 42.0724 19.0352 42.4673 19.2908 42.9759C19.5494 43.4844 19.6786 44.0767 19.6786 44.7528C19.6786 45.429 19.5494 46.0199 19.2908 46.5256C19.0352 47.0312 18.6729 47.4247 18.2042 47.706C17.7354 47.9872 17.1815 48.1278 16.5423 48.1278ZM16.5508 46.892C16.8974 46.892 17.1871 46.7969 17.4201 46.6065C17.6531 46.4134 17.8263 46.1548 17.94 45.831C18.0565 45.5071 18.1147 45.1463 18.1147 44.7486C18.1147 44.348 18.0565 43.9858 17.94 43.6619C17.8263 43.3352 17.6531 43.0753 17.4201 42.8821C17.1871 42.6889 16.8974 42.5923 16.5508 42.5923C16.1957 42.5923 15.9002 42.6889 15.6644 42.8821C15.4315 43.0753 15.2567 43.3352 15.1403 43.6619C15.0266 43.9858 14.9698 44.348 14.9698 44.7486C14.9698 45.1463 15.0266 45.5071 15.1403 45.831C15.2567 46.1548 15.4315 46.4134 15.6644 46.6065C15.9002 46.7969 16.1957 46.892 16.5508 46.892ZM24.2564 41.4545V42.6477H20.4936V41.4545H24.2564ZM21.4226 39.8864H22.9652V46.0312C22.9652 46.2386 22.9964 46.3977 23.0589 46.5085C23.1243 46.6165 23.2095 46.6903 23.3146 46.7301C23.4197 46.7699 23.5362 46.7898 23.6641 46.7898C23.7607 46.7898 23.8487 46.7827 23.9283 46.7685C24.0107 46.7543 24.0732 46.7415 24.1158 46.7301L24.3757 47.9361C24.2933 47.9645 24.1754 47.9957 24.022 48.0298C23.8714 48.0639 23.6868 48.0838 23.468 48.0895C23.0817 48.1009 22.7337 48.0426 22.424 47.9148C22.1143 47.7841 21.8686 47.5824 21.6868 47.3097C21.5078 47.0369 21.4197 46.696 21.4226 46.2869V39.8864ZM25.5465 48V41.4545H27.0423V42.5455H27.1104C27.2298 42.1676 27.4343 41.8764 27.7241 41.6719C28.0167 41.4645 28.3505 41.3608 28.7255 41.3608C28.8107 41.3608 28.9059 41.3651 29.011 41.3736C29.119 41.3793 29.2085 41.3892 29.2795 41.4034V42.8224C29.2141 42.7997 29.1104 42.7798 28.9684 42.7628C28.8292 42.7429 28.6942 42.733 28.5636 42.733C28.2823 42.733 28.0295 42.794 27.805 42.9162C27.5835 43.0355 27.4087 43.2017 27.2809 43.4148C27.1531 43.6278 27.0891 43.8736 27.0891 44.152V48H25.5465ZM32.9325 48.1278C32.2763 48.1278 31.7095 47.9915 31.2322 47.7188C30.7578 47.4432 30.3928 47.054 30.1371 46.5511C29.8814 46.0455 29.7536 45.4503 29.7536 44.7656C29.7536 44.0923 29.8814 43.5014 30.1371 42.9929C30.3956 42.4815 30.7564 42.0838 31.2195 41.7997C31.6825 41.5128 32.2266 41.3693 32.8516 41.3693C33.255 41.3693 33.6357 41.4347 33.9936 41.5653C34.3544 41.6932 34.6726 41.892 34.9482 42.1619C35.2266 42.4318 35.4453 42.7756 35.6044 43.1932C35.7635 43.608 35.843 44.1023 35.843 44.6761V45.1491H30.478V44.1094H34.3643C34.3615 43.8139 34.2976 43.5511 34.1726 43.321C34.0476 43.0881 33.8729 42.9048 33.6484 42.7713C33.4268 42.6378 33.1683 42.571 32.8729 42.571C32.5575 42.571 32.2805 42.6477 32.0419 42.8011C31.8033 42.9517 31.6172 43.1506 31.4837 43.3977C31.353 43.642 31.2862 43.9105 31.2834 44.2031V45.1108C31.2834 45.4915 31.353 45.8182 31.4922 46.0909C31.6314 46.3608 31.826 46.5682 32.076 46.7131C32.326 46.8551 32.6186 46.9261 32.9538 46.9261C33.1783 46.9261 33.3814 46.8949 33.5632 46.8324C33.745 46.767 33.9027 46.6719 34.0362 46.5469C34.1697 46.4219 34.2706 46.267 34.3388 46.0824L35.7791 46.2443C35.6882 46.625 35.5149 46.9574 35.2592 47.2415C35.0064 47.5227 34.6825 47.7415 34.2876 47.8977C33.8928 48.0511 33.4411 48.1278 32.9325 48.1278Z" fill="#1A1A1A"/>
<path d="M44.6864 42.2173H43.0927C43.0472 41.956 42.9634 41.7244 42.8413 41.5227C42.7191 41.3182 42.5671 41.1449 42.3853 41.0028C42.2035 40.8608 41.9961 40.7543 41.7631 40.6832C41.533 40.6094 41.2844 40.5724 41.0174 40.5724C40.543 40.5724 40.1225 40.6918 39.756 40.9304C39.3896 41.1662 39.1026 41.5128 38.8952 41.9702C38.6879 42.4247 38.5842 42.9801 38.5842 43.6364C38.5842 44.304 38.6879 44.8665 38.8952 45.3239C39.1055 45.7784 39.3924 46.1222 39.756 46.3551C40.1225 46.5852 40.5415 46.7003 41.0131 46.7003C41.2745 46.7003 41.5188 46.6662 41.7461 46.598C41.9762 46.527 42.1822 46.4233 42.364 46.2869C42.5487 46.1506 42.7035 45.983 42.8285 45.7841C42.9563 45.5852 43.0444 45.358 43.0927 45.1023L44.6864 45.1108C44.6268 45.5256 44.4975 45.9148 44.2987 46.2784C44.1026 46.642 43.8455 46.9631 43.5273 47.2415C43.2092 47.517 42.837 47.733 42.4109 47.8892C41.9847 48.0426 41.5117 48.1193 40.9918 48.1193C40.2248 48.1193 39.5401 47.9418 38.9379 47.5866C38.3356 47.2315 37.8612 46.7188 37.5146 46.0483C37.168 45.3778 36.9947 44.5739 36.9947 43.6364C36.9947 42.696 37.1694 41.892 37.5188 41.2244C37.8683 40.554 38.3441 40.0412 38.9464 39.6861C39.5487 39.331 40.2305 39.1534 40.9918 39.1534C41.4776 39.1534 41.9293 39.2216 42.3469 39.358C42.7646 39.4943 43.1367 39.6946 43.4634 39.9588C43.7901 40.2202 44.0586 40.5412 44.2688 40.9219C44.4819 41.2997 44.6211 41.7315 44.6864 42.2173ZM47.9496 48.1321C47.5348 48.1321 47.1612 48.0582 46.8288 47.9105C46.4993 47.7599 46.2379 47.5384 46.0447 47.2457C45.8544 46.9531 45.7592 46.5923 45.7592 46.1634C45.7592 45.794 45.8274 45.4886 45.9638 45.2472C46.1001 45.0057 46.2862 44.8125 46.522 44.6676C46.7578 44.5227 47.0234 44.4134 47.3189 44.3395C47.6172 44.2628 47.9254 44.2074 48.2436 44.1733C48.6271 44.1335 48.9382 44.098 49.1768 44.0668C49.4155 44.0327 49.5888 43.9815 49.6967 43.9134C49.8075 43.8423 49.8629 43.733 49.8629 43.5852V43.5597C49.8629 43.2386 49.7678 42.9901 49.5774 42.8139C49.3871 42.6378 49.1129 42.5497 48.755 42.5497C48.3771 42.5497 48.0774 42.6321 47.8558 42.7969C47.6371 42.9616 47.4893 43.1562 47.4126 43.3807L45.9723 43.1761C46.0859 42.7784 46.2734 42.446 46.5348 42.179C46.7962 41.9091 47.1158 41.7074 47.4936 41.5739C47.8714 41.4375 48.2891 41.3693 48.7464 41.3693C49.0618 41.3693 49.3757 41.4062 49.6882 41.4801C50.0007 41.554 50.2862 41.6761 50.5447 41.8466C50.8033 42.0142 51.0107 42.2429 51.1669 42.5327C51.326 42.8224 51.4055 43.1847 51.4055 43.6193V48H49.9226V47.1009H49.8714C49.7777 47.2827 49.6456 47.4531 49.4751 47.6122C49.3075 47.7685 49.0959 47.8949 48.8402 47.9915C48.5874 48.0852 48.2905 48.1321 47.9496 48.1321ZM48.3501 46.9986C48.6598 46.9986 48.9283 46.9375 49.1555 46.8153C49.3828 46.6903 49.5575 46.5256 49.6797 46.321C49.8047 46.1165 49.8672 45.8935 49.8672 45.652V44.8807C49.8189 44.9205 49.7365 44.9574 49.62 44.9915C49.5064 45.0256 49.3786 45.0554 49.2365 45.081C49.0945 45.1065 48.9538 45.1293 48.8146 45.1491C48.6754 45.169 48.5547 45.1861 48.4524 45.2003C48.2223 45.2315 48.0163 45.2827 47.8345 45.3537C47.6527 45.4247 47.5092 45.5241 47.4041 45.652C47.299 45.777 47.2464 45.9389 47.2464 46.1378C47.2464 46.4219 47.3501 46.6364 47.5575 46.7812C47.7649 46.9261 48.0291 46.9986 48.3501 46.9986ZM52.9567 48V41.4545H54.4524V42.5455H54.5206C54.6399 42.1676 54.8445 41.8764 55.1342 41.6719C55.4268 41.4645 55.7607 41.3608 56.1357 41.3608C56.2209 41.3608 56.3161 41.3651 56.4212 41.3736C56.5291 41.3793 56.6186 41.3892 56.6896 41.4034V42.8224C56.6243 42.7997 56.5206 42.7798 56.3786 42.7628C56.2393 42.7429 56.1044 42.733 55.9737 42.733C55.6925 42.733 55.4396 42.794 55.2152 42.9162C54.9936 43.0355 54.8189 43.2017 54.6911 43.4148C54.5632 43.6278 54.4993 43.8736 54.4993 44.152V48H52.9567ZM60.3427 48.1278C59.6864 48.1278 59.1197 47.9915 58.6424 47.7188C58.168 47.4432 57.8029 47.054 57.5472 46.5511C57.2915 46.0455 57.1637 45.4503 57.1637 44.7656C57.1637 44.0923 57.2915 43.5014 57.5472 42.9929C57.8058 42.4815 58.1665 42.0838 58.6296 41.7997C59.0927 41.5128 59.6367 41.3693 60.2617 41.3693C60.6651 41.3693 61.0458 41.4347 61.4038 41.5653C61.7646 41.6932 62.0827 41.892 62.3583 42.1619C62.6367 42.4318 62.8555 42.7756 63.0146 43.1932C63.1737 43.608 63.2532 44.1023 63.2532 44.6761V45.1491H57.8881V44.1094H61.7745C61.7717 43.8139 61.7077 43.5511 61.5827 43.321C61.4577 43.0881 61.283 42.9048 61.0586 42.7713C60.837 42.6378 60.5785 42.571 60.283 42.571C59.9677 42.571 59.6907 42.6477 59.4521 42.8011C59.2134 42.9517 59.0273 43.1506 58.8938 43.3977C58.7631 43.642 58.6964 43.9105 58.6935 44.2031V45.1108C58.6935 45.4915 58.7631 45.8182 58.9023 46.0909C59.0415 46.3608 59.2362 46.5682 59.4862 46.7131C59.7362 46.8551 60.0288 46.9261 60.364 46.9261C60.5884 46.9261 60.7915 46.8949 60.9734 46.8324C61.1552 46.767 61.3129 46.6719 61.4464 46.5469C61.5799 46.4219 61.6808 46.267 61.7489 46.0824L63.1893 46.2443C63.0984 46.625 62.9251 46.9574 62.6694 47.2415C62.4165 47.5227 62.0927 47.7415 61.6978 47.8977C61.3029 48.0511 60.8512 48.1278 60.3427 48.1278Z" fill="#E6274E"/>
</g>
<defs>
<filter id="filter0_d_27_178" x="0.860779" y="0" width="66.3924" height="59" filterUnits="userSpaceOnUse" color-interpolation-filters="sRGB">
<feFlood flood-opacity="0" result="BackgroundImageFix"/>
<feColorMatrix in="SourceAlpha" type="matrix" values="0 0 0 0 0 0 0 0 0 0 0 0 0 0 0 0 0 0 127 0" result="hardAlpha"/>
<feOffset dy="4"/>
<feGaussianBlur stdDeviation="2"/>
<feComposite in2="hardAlpha" operator="out"/>
<feColorMatrix type="matrix" values="0 0 0 0 0 0 0 0 0 0 0 0 0 0 0 0 0 0 0.25 0"/>
<feBlend mode="normal" in2="BackgroundImageFix" result="effect1_dropShadow_27_178"/>
<feBlend mode="normal" in="SourceGraphic" in2="effect1_dropShadow_27_178" result="shape"/>
</filter>
</defs>
</svg>
